<?xml version="1.0" encoding="utf-8"?>
<!-- Generator: Adobe Illustrator 23.0.0, SVG Export Plug-In . SVG Version: 6.00 Build 0)  -->
<svg version="1.1" xmlns="http://www.w3.org/2000/svg" xmlns:xlink="http://www.w3.org/1999/xlink" x="0px" y="0px"
	 viewBox="0 0 1520 1947" style="enable-background:new 0 0 1520 1947;" xml:space="preserve">
<style type="text/css">
	.st0{opacity:0.4;}
	.st1{fill:#1F1E21;}
	.st2{fill:#F5F1DC;}
	.st3{display:none;}
	.st4{display:inline;opacity:0.3;}
	.st5{opacity:0.8;fill:#9A93DA;}
	.st6{display:inline;}
	.st7{fill:#E6E7E8;}
	.st8{fill:#FFFFFF;}
	.st9{fill:#BCBEC0;}
	.st10{font-family:'OpenSans-Semibold';}
	.st11{font-size:62.5521px;}
	.st12{display:inline;opacity:0.3;fill:#9A93DA;}
	.st13{display:inline;fill:#789CE6;}
	.st14{display:inline;opacity:0.3;fill:#345999;}
	.st15{opacity:0.5;fill:#FFFFFF;}
	.st16{display:inline;fill:#FFFFFF;}
	.st17{font-family:'BebasNeueBold';}
	.st18{font-size:102.516px;}
	.st19{letter-spacing:4;}
	.st20{opacity:0.5;fill:#B2AC90;}
	.st21{display:inline;fill:none;}
	.st22{fill:#789CE6;}
	.st23{font-family:'Montserrat-Medium';}
	.st24{font-size:40.1934px;}
	.st25{display:none;fill:#293241;}
	.st26{opacity:0.3;fill:#9A93DA;}
	.st27{fill:#FF6677;}
	.st28{fill:#FEC55E;}
	.st29{fill:#EFEFEF;}
	.st30{fill:#FFC3B5;}
	.st31{fill:#FF526B;}
	.st32{fill:#FCFCFC;}
	.st33{fill:#FC8899;}
	.st34{opacity:0.6;fill:#293241;}
	.st35{fill:#D1D1D1;}
	.st36{fill:#F7CC7F;}
	.st37{fill:#F47458;}
	.st38{fill:#355389;}
	.st39{fill:#293241;}
	.st40{fill:#3E4654;}
	.st41{fill:#EFADA0;}
	.st42{fill:#F4B34A;}
	.st43{opacity:0.3;fill:#293241;}
	.st44{fill:#F9708B;}
	.st45{font-family:'ScriptMTBold';}
	.st46{font-size:131.7425px;}
</style>
<g id="Layer_2">
	<g>
		<g>
			<g class="st0">
				<g>
					<g>
						<path class="st1" d="M1492.92,124.08v1759.44c0,24.56-19.92,44.48-44.48,44.48H131.61c-4.6,0-9.07-0.71-13.22-2.01
							c-13.93-4.33-24.96-15.32-29.25-29.25c-1.3-4.15-2.01-8.62-2.01-13.22V124.08c0-24.56,19.92-44.48,44.48-44.48h1316.82
							c4.6,0,9.07,0.71,13.22,2.01c13.93,4.29,24.92,15.32,29.25,29.25C1492.2,115.01,1492.92,119.48,1492.92,124.08z"/>
					</g>
				</g>
			</g>
			<g>
				<g>
					<path class="st2" d="M1430.4,61.58v1759.4c0,24.56-19.92,44.53-44.48,44.53H69.09c-4.6,0-9.07-0.76-13.22-2.05
						c-13.93-4.33-24.96-15.27-29.25-29.21c-1.3-4.15-2.01-8.62-2.01-13.26V61.58c0-24.56,19.92-44.53,44.48-44.53h1316.82
						c4.6,0,9.07,0.71,13.22,2.05c13.93,4.24,24.92,15.27,29.25,29.21C1429.68,52.46,1430.4,56.93,1430.4,61.58z"/>
				</g>
			</g>
			<g class="st3">
				<g class="st4">
					<g>
						<g>
							<g>
								<g>
									<g>
										<g>
											<path class="st5" d="M1298.25,1524.67H217.38c-6.96,0-12.61-5.64-12.61-12.61v-103.49c0-6.96,5.64-12.61,12.61-12.61
												h1080.88c6.96,0,12.61,5.64,12.61,12.61v103.49C1310.86,1519.02,1305.22,1524.67,1298.25,1524.67z"/>
										</g>
									</g>
								</g>
							</g>
						</g>
					</g>
				</g>
				<g class="st6">
					<g>
						<g>
							<g>
								<g>
									<path class="st7" d="M1279.64,1503.81H198.77c-6.96,0-12.61-5.64-12.61-12.61v-103.49c0-6.96,5.64-12.61,12.61-12.61
										h1080.88c6.96,0,12.61,5.64,12.61,12.61v103.49C1292.25,1498.17,1286.61,1503.81,1279.64,1503.81z"/>
								</g>
							</g>
						</g>
					</g>
					<g>
						<g>
							<g>
								<g>
									<g>
										<path class="st8" d="M1279.64,1503.81H198.77c-6.96,0-12.61-5.64-12.61-12.61v-103.49c0-6.96,5.64-12.61,12.61-12.61
											h1080.88c6.96,0,12.61,5.64,12.61,12.61v103.49C1292.25,1498.17,1286.61,1503.81,1279.64,1503.81z"/>
									</g>
								</g>
							</g>
						</g>
					</g>
					<g>
						<text transform="matrix(1 0 0 1 526.5347 1464.4805)" class="st9 st10 st11">Email Address</text>
					</g>
				</g>
			</g>
			<g class="st3">
				<path class="st12" d="M910.04,1588.31h-352.8c-39.04,0-70.68,35.01-70.68,78.19l0,0c0,43.19,31.65,78.19,70.68,78.19h352.8
					c39.04,0,70.68-35.01,70.68-78.19l0,0C980.72,1623.32,949.08,1588.31,910.04,1588.31z"/>
				<path class="st13" d="M896.51,1588.31H549.87c-38.36,0-69.45,31.09-69.45,69.45l0,0c0,38.36,31.09,69.45,69.45,69.45h346.64
					c38.36,0,69.45-31.09,69.45-69.45l0,0C965.96,1619.41,934.86,1588.31,896.51,1588.31z"/>
				<path class="st14" d="M965.95,1657.75c0,38.37-31.07,69.44-69.44,69.44H549.86c-19.16,0-36.55-7.77-49.11-20.33
					c-12.56-12.56-20.33-29.91-20.33-49.11c0-2.85,0.17-5.65,0.52-8.42c1.9,15.8,9.15,29.95,19.81,40.65
					c12.56,12.56,29.95,20.33,49.11,20.33h346.64c35.48,0,64.74-26.63,68.92-60.98C965.78,1652.09,965.95,1654.9,965.95,1657.75z"/>
				<g class="st6">
					<path class="st15" d="M956.68,1658.71c0,1.4-0.04,2.76-0.14,4.12c-1.03-16.47-8.25-31.26-19.41-42.21
						c-12.09-11.86-28.8-19.19-47.25-19.19H556.51c-35.48,0-64.53,27.14-66.67,61.4c-0.11-1.36-0.14-2.72-0.14-4.12
						c0-36.21,29.9-65.55,66.81-65.55h333.37c18.45,0,35.16,7.33,47.25,19.19C949.22,1624.2,956.68,1640.6,956.68,1658.71z"/>
				</g>
				<text transform="matrix(1 0 0 1 600.5933 1692.1572)" class="st16 st17 st18 st19">JOIN US</text>
			</g>
			<g>
				<path class="st8" d="M1402.04,60.91v1760.74c0,4.29-3.48,7.77-7.77,7.77c-4.29,0-7.77-3.48-7.77-7.77V60.91
					c0-4.29,3.48-7.77,7.77-7.77C1398.55,53.13,1402.04,56.62,1402.04,60.91z"/>
				<g>
					<path class="st8" d="M52.95,1821.64V60.91c0-4.29,3.48-7.78,7.78-7.78l0,0c4.29,0,7.78,3.48,7.78,7.78v1760.74
						c0,4.29-3.48,7.78-7.78,7.78l0,0C56.43,1829.42,52.95,1825.94,52.95,1821.64z"/>
				</g>
				<g>
					<path class="st8" d="M1402.04,57.56v7.77H60.74c-4.29,0-7.77-3.48-7.77-7.77s3.48-7.77,7.77-7.77h1333.53
						C1398.55,49.79,1402.04,53.27,1402.04,57.56z"/>
				</g>
			</g>
			<path class="st20" d="M1428.39,48.31c-4.33-13.93-15.32-24.96-29.25-29.21c-4.15-1.34-8.62-2.05-13.22-2.05H69.09
				c-24.56,0-44.48,19.96-44.48,44.53v1759.4c0,4.64,0.71,9.11,2.01,13.26c4.29,13.93,15.32,24.88,29.25,29.21
				c4.15,1.3,8.62,2.05,13.22,2.05h1316.82c24.56,0,44.48-19.96,44.48-44.53V61.58C1430.4,56.93,1429.68,52.46,1428.39,48.31z
				 M1408.07,1821.02c0,12.19-9.91,22.15-22.15,22.15H69.09c-2.23,0-4.47-0.36-6.56-1.03c-6.88-2.14-12.46-7.68-14.56-14.51
				c-0.67-2.19-1.03-4.38-1.03-6.61V61.58c0-12.24,9.91-22.15,22.15-22.15h1316.82c2.23,0,4.47,0.31,6.56,0.98
				c7.01,2.14,12.42,7.59,14.6,14.56c0.63,2.14,0.98,4.33,0.98,6.61V1821.02z"/>
			<g class="st3">
				<rect x="174.71" y="1247.36" class="st21" width="1097.88" height="86.17"/>
				<text transform="matrix(1 0 0 1 180.9082 1275.9014)" class="st6"><tspan x="0" y="0" class="st22 st23 st24">Lorem ipsum dolor sit amet, consectetur adipiscing elit. Putabam </tspan><tspan x="268.49" y="44.66" class="st22 st23 st24">equidem satis, inquit, me dixisse. </tspan></text>
			</g>
		</g>
	</g>
</g>
<g id="Layer_1">
	<g>
		<path class="st25" d="M1204.43,2189H274c-71.8,0-130-58.2-130-130V-281c0-71.8,58.2-130,130-130h930.43c71.8,0,130,58.2,130,130
			v2340C1334.43,2130.8,1276.23,2189,1204.43,2189z"/>
		<g>
			<g>
				<g>
					<circle class="st8" cx="722.09" cy="680.65" r="514.07"/>
					<path class="st26" d="M1271.43,715.92c0,283.94-230.14,514.08-514.08,514.08c-150.83,0-286.45-64.98-380.53-168.43
						c91.32,83.21,212.73,133.86,345.97,133.86c283.94,0,514.08-230.14,514.08-514.08c0-133.11-50.59-254.34-133.55-345.65
						C1206.64,429.72,1271.43,565.22,1271.43,715.92z"/>
				</g>
				<g>
					<path class="st8" d="M253.59,326.8c-3.82-22.41-25.09-37.48-47.5-33.66c-22.41,3.82-37.48,25.09-33.66,47.5
						c3.82,22.41,25.09,37.48,47.5,33.66C242.34,370.48,257.41,349.21,253.59,326.8z"/>
					<path class="st8" d="M211.26,260.57c25.92-4.42,43.35-29.02,38.93-54.94c-4.42-25.92-29.02-43.35-54.94-38.93
						c-25.92,4.42-43.35,29.02-38.93,54.94C160.74,247.57,185.34,264.99,211.26,260.57z"/>
					<path class="st8" d="M356.53,193.99c2.06,12.06,13.51,20.17,25.57,18.12c12.06-2.06,20.18-13.5,18.12-25.57
						c-2.06-12.06-13.51-20.18-25.57-18.12C362.58,170.48,354.47,181.93,356.53,193.99z"/>
					<path class="st8" d="M430.54,165.28c11.85-2.02,19.81-13.26,17.79-25.11c-2.02-11.85-13.26-19.81-25.11-17.79
						c-11.85,2.02-19.81,13.26-17.79,25.11C407.45,159.33,418.69,167.3,430.54,165.28z"/>
					<path class="st8" d="M267.18,201.45c3.18,18.65,20.88,31.2,39.54,28.02c18.66-3.18,31.2-20.88,28.02-39.54
						c-3.18-18.65-20.88-31.2-39.54-28.02C276.54,165.09,263.99,182.8,267.18,201.45z"/>
					<path class="st8" d="M348.1,150.11c8.65-1.48,14.47-9.69,13-18.34c-1.48-8.66-9.69-14.47-18.34-13
						c-8.66,1.48-14.47,9.69-13,18.34C331.23,145.76,339.44,151.58,348.1,150.11z"/>
					<path class="st8" d="M264.69,153.23c10.15-1.73,16.97-11.36,15.24-21.51c-1.73-10.15-11.36-16.97-21.51-15.24
						c-10.15,1.73-16.97,11.36-15.24,21.51C244.92,148.14,254.54,154.97,264.69,153.23z"/>
					<path class="st8" d="M142.31,269.34c-10.15,1.73-16.97,11.36-15.24,21.51c1.73,10.15,11.36,16.97,21.51,15.24
						c10.15-1.73,16.97-11.36,15.24-21.51C162.08,274.43,152.46,267.6,142.31,269.34z"/>
					<path class="st8" d="M543.95,240.53c-7.19-42.13-47.17-70.46-89.3-63.27c-36.02,6.14-61.87,36.27-64.14,71.21
						c-16.4-10.53-36.58-15.28-57.3-11.75c-44.09,7.52-73.73,49.36-66.22,93.45c2.66,15.57,9.65,29.27,19.45,40.24
						c-2.54,0.14-5.1,0.38-7.66,0.82c-36.02,6.15-60.24,40.33-54.1,76.35c6.14,36.02,40.33,60.24,76.35,54.1
						c36.02-6.15,60.24-40.33,54.1-76.35c-1.78-10.46-5.98-19.87-11.85-27.88c5.64,0.24,11.38-0.07,17.17-1.06
						c38.42-6.55,65.85-39.17,67.3-76.62c15.33,9.25,33.9,13.31,52.93,10.06C522.81,322.64,551.14,282.66,543.95,240.53z"/>
				</g>
			</g>
		</g>
		<g id="_x30_">
			<g>
				<path class="st27" d="M1152.13,350.31l-31.82,31.82c-6.25,6.25-16.38,6.25-22.63,0l-31.82-31.82c-6.25-6.25-6.25-16.38,0-22.63
					l31.82-31.82c6.25-6.25,16.38-6.25,22.63,0l31.82,31.82C1158.38,333.93,1158.38,344.07,1152.13,350.31z"/>
				<path class="st28" d="M907.74,1130.64l-31.58,14.02c-8.08,3.59-17.53-0.06-21.12-8.13l-14.02-31.58
					c-3.59-8.08,0.05-17.53,8.13-21.12l31.58-14.02c8.08-3.59,17.53,0.06,21.12,8.13l14.02,31.58
					C919.46,1117.6,915.81,1127.06,907.74,1130.64z"/>
				<path class="st27" d="M325.57,355.29h-16.14c-4.42,0-8-3.58-8-8v-16.14c0-4.42,3.58-8,8-8h16.14c4.42,0,8,3.58,8,8v16.14
					C333.57,351.71,329.99,355.29,325.57,355.29z"/>
				<path class="st27" d="M1206.57,211.29h-16.14c-4.42,0-8-3.58-8-8v-16.14c0-4.42,3.58-8,8-8h16.14c4.42,0,8,3.58,8,8v16.14
					C1214.57,207.71,1210.99,211.29,1206.57,211.29z"/>
				<path class="st27" d="M1155.33,1066.63l-14.24-14.24c-2.34-2.34-2.34-6.14,0-8.49l14.24-14.24c2.34-2.34,6.14-2.34,8.49,0
					l14.24,14.24c2.34,2.34,2.34,6.14,0,8.49l-14.24,14.24C1161.48,1068.97,1157.68,1068.97,1155.33,1066.63z"/>
				<path d="M938.5,134.63c-2.56,0-5.12-0.97-7.07-2.92v0l-11.41-11.41c-1.89-1.89-2.93-4.4-2.93-7.07c0-2.67,1.04-5.18,2.93-7.07
					l11.41-11.41c3.9-3.9,10.24-3.9,14.14,0l11.41,11.41c1.89,1.89,2.93,4.4,2.93,7.07c0,2.67-1.04,5.18-2.93,7.07l-11.41,11.41
					C943.62,133.65,941.06,134.63,938.5,134.63z M934.26,128.88c2.34,2.34,6.15,2.34,8.49,0l11.41-11.41
					c1.13-1.13,1.76-2.64,1.76-4.24c0-1.6-0.62-3.11-1.76-4.24l-11.41-11.41c-2.34-2.34-6.15-2.34-8.49,0l-11.41,11.41
					c-1.13,1.13-1.76,2.64-1.76,4.24c0,1.6,0.62,3.11,1.76,4.24L934.26,128.88L934.26,128.88z"/>
				<path d="M675.5,155.63c-2.56,0-5.12-0.97-7.07-2.92l-11.41-11.41c-3.9-3.9-3.9-10.24,0-14.14l11.41-11.41
					c3.9-3.9,10.24-3.9,14.14,0l11.41,11.41c3.9,3.9,3.9,10.24,0,14.14l-11.41,11.41C680.62,154.65,678.06,155.63,675.5,155.63z
					 M675.5,116.82c-1.54,0-3.07,0.58-4.24,1.75l-11.41,11.41c-2.34,2.34-2.34,6.15,0,8.49l11.41,11.41c2.34,2.34,6.15,2.34,8.49,0
					l11.41-11.41c2.34-2.34,2.34-6.15,0-8.49l-11.41-11.41C678.57,117.4,677.04,116.82,675.5,116.82z"/>
				<path d="M366.5,1178.63c-2.67,0-5.18-1.04-7.07-2.93l-11.41-11.41c-3.9-3.9-3.9-10.24,0-14.14l11.41-11.41
					c1.89-1.89,4.4-2.93,7.07-2.93s5.18,1.04,7.07,2.93l11.41,11.41c3.9,3.9,3.9,10.24,0,14.14l-11.41,11.41
					C371.68,1177.59,369.17,1178.63,366.5,1178.63z M366.5,1139.81c-1.6,0-3.11,0.62-4.24,1.76l-11.41,11.41
					c-2.34,2.34-2.34,6.15,0,8.49l11.41,11.41c1.13,1.13,2.64,1.76,4.24,1.76s3.11-0.62,4.24-1.76l11.41-11.41
					c2.34-2.34,2.34-6.15,0-8.49l-11.41-11.41C369.61,1140.44,368.1,1139.81,366.5,1139.81z"/>
				<path class="st28" d="M550,258H412c-1.1,0-2,0.9-2,2v4c0,1.1,0.9-4,2-4h138c1.1,0,2,5.1,2,4v-4C552,258.9,551.1,258,550,258z"/>
				<path class="st28" d="M1189,131h-138c-1.1,0-2,0.9-2,2v4c0,1.1,0.9-4,2-4h138c1.1,0,2,5.1,2,4v-4
					C1191,131.9,1190.1,131,1189,131z"/>
			</g>
		</g>
		<g>
			<polygon class="st28" points="379.3,461.71 394.33,459.16 393.91,447.85 408.66,444.82 409.91,433.82 420.7,430.11 419,425.87 
				404.57,430.82 403.38,441.24 388.04,444.4 388.46,455.52 374.83,457.83 			"/>
			<g>
				<g>
					<path class="st28" d="M1103.58,491.52c-2.14,9.22-11.32,14.95-20.51,12.81c-9.19-2.14-14.91-11.36-12.77-20.57
						c2.14-9.22,11.32-14.95,20.51-12.81C1100,473.09,1105.72,482.31,1103.58,491.52z"/>
					<path class="st29" d="M1077.43,488.21c-1.14,4.93,1.91,9.85,6.83,11c4.91,1.15,9.82-1.92,10.96-6.85L1077.43,488.21z"/>
				</g>
			</g>
			<polygon class="st27" points="1165.97,504.59 1154.7,505.93 1154.61,514.36 1143.53,516.08 1142.21,524.22 1134.06,526.57 
				1135.17,529.79 1146.08,526.64 1147.33,518.93 1158.85,517.15 1158.94,508.86 1169.16,507.64 			"/>
			<polygon class="st27" points="715.42,256.31 709.92,248.94 700.77,250.85 695.19,242.16 686.07,247.21 679.33,237.65 
				670.35,241.27 662.37,233.13 665.43,230.11 671.4,236.19 680.87,232.38 687.35,241.56 696.63,236.42 702.79,246.02 
				711.73,244.15 716.82,250.98 722.44,248.53 724.16,252.48 			"/>
			<g>
				<path class="st28" d="M1166.98,741.72c-0.68,7.36,5.65,14.09,12.66,15.31c7.27,1.27,13.75-3.47,16.25-10.16
					c4.93-13.21-9.52-23.63-17.36-15.64c-7.32,7.46-5,18.55,2.9,18.55c2.98,0,7.78-2.5,5.87-6.11c-0.43-0.81-1.63-0.75-2.07,0
					c-0.96,1.63-0.88,1.69-1.33,2.06c-0.71,0.57-1.7,0.76-2.59,0.75c-8.04-0.14-2.7-18.54,6.79-14.08
					c5.21,2.45,6.74,8.37,4.93,13.54c-1.74,4.98-6.41,8.83-11.8,8.49c-6.45-0.41-11.86-6.34-12.28-12.7
					C1168.86,740.44,1167.09,740.46,1166.98,741.72L1166.98,741.72z"/>
			</g>
			<g>
				<path class="st30" d="M1105.54,961.54c0,0,4,3.92,4.09,5.36c0.09,1.44,0.35,16.84-1.28,18.28c-1.63,1.44-6.43,2.46-4.89,4.08
					c1.17,1.22,10.14,0.96,16.08,0.63c1.74-0.1,3.91-13.99,4.6-16.03c1-2.97,3.43-9.65,2.52-11.71c-0.44-1.01-2.56-3.08-5.54-5.01
					c-3.14-2.03-6.14-6.56-6.14-6.56L1105.54,961.54z"/>
				<path class="st30" d="M1064.08,970.67c0,0,3.58,10.15,3.59,10.18c0.27,1.61,1.32,5.58,1.32,7.04c0,5.49-24.69-4.66-19.16-7.1
					c0.5-0.22,2.07-1.98,2.24-3.85c0.25-2.88-2.08-6.49-2.08-6.49L1064.08,970.67z"/>
				<g>
					<path class="st31" d="M1025.35,781.62c0,0-1.8,18.2-1.8,18.47c0,29.44-5.82,86.95-4.71,92.48c2.7,13.5,31.74,82.37,31.74,82.37
						l15.7-1.88l-20.46-82.46l7.53-33.19l10.65-65.6L1025.35,781.62z"/>
					<path class="st27" d="M1078.03,797.72l2.98,17.25l8.06,70.99l30.69,69.38c0,0-4.32,10.1-10.68,11.51l-48.84-71.24l-30.34-91.15
						l1.06-20.25L1078.03,797.72z"/>
				</g>
				<path class="st32" d="M1120.93,957.03c0,0-9.22,26.06-12.83,27.32c-0.96,0.33-5.56,1.18-6.43,3.22c-0.26,0.62,0,2.67,0,2.67
					h19.23c0,0,2.43-11.48,3.39-16.53c0,0,5.09-12.33,4.52-13.45S1120.93,957.03,1120.93,957.03z"/>
				<path class="st32" d="M1070.38,989.7l-2.83-8.96c0,0-5.94,2.52-8.91,2.1c-2.97-0.42-8.76-2.1-8.76-2.1
					c-11.85,3.91-21.56,5.81-19.79,8.96l0,0H1070.38z"/>
				<g>
					<path class="st32" d="M1069.32,691.09c0,0,19.69,2.08,24.91,7.59l-10.04,50.83c-0.76,3.85-1.1,7.77-1,11.69
						c0.26,10.62,0.67,32.7-0.16,39.88c-2.29,19.88-53.92,0.79-61.56-1.84c0,0,11.48-88.51,19.33-102.14
						c2.62-4.54,14.55-4.73,14.55-4.73L1069.32,691.09z"/>
					<path class="st30" d="M976.22,662.27c0.73-1.54,7.2,3.01,8.64,2.15c1.43-0.87-5.8-8.16-5.06-9.43c1.36-2.35,8.41,7.5,9.11,6.46
						c0.69-1.04-6.08-11.56-3.66-12.13c2.42-0.58,5.89,11.64,7.13,10.85c1.24-0.79-4.25-11.07-1.91-13.17
						c1.25-1.12,7.15,18.76,9.29,19.59c2.14,0.83,4.55-7.86,6.57-7.51c2.01,0.34-6.61,15.97-6.18,17.19
						c0.42,1.22,8.32,26.73,12.98,34.43c2.8-1.34,5.54-2.69,8.14-4c1.05,5.92,3.46,11.08,4.84,16.89
						c-9.04,3.97-19.41,7.92-22.04,6.95c-8-2.94-11.94-41.76-13.22-49c-1.29-7.25-4.7-8.67-6.65-12.48
						C982.24,665.24,975.5,663.81,976.22,662.27z"/>
					<path class="st32" d="M1044.05,694.51l11.47,13.95c0,0-16.66,11.23-31.66,17.82c-1.38-5.81-4.77-14.91-5.81-20.83
						C1030.44,699.2,1044.05,694.51,1044.05,694.51z"/>
					<path class="st30" d="M1151.55,660.84c-0.73-1.54-7.2,3.01-8.64,2.15c-1.43-0.87,5.8-8.16,5.06-9.43
						c-1.36-2.35-8.41,7.5-9.11,6.46c-0.69-1.04,6.08-11.56,3.66-12.13c-2.42-0.58-5.89,11.64-7.13,10.85
						c-1.24-0.79,4.25-11.07,1.91-13.16c-1.25-1.12-7.15,18.76-9.29,19.59c-2.14,0.83-4.55-7.86-6.57-7.51s6.61,15.97,6.18,17.19
						c-0.42,1.22-8.32,26.73-12.98,34.43c-2.8-1.34-5.54-2.69-8.14-4c-1.05,5.92-3.85,11.52-5.23,17.33
						c9.04,3.97,19.8,7.48,22.43,6.51c8-2.94,11.94-41.76,13.22-49c1.29-7.25,4.7-8.67,6.65-12.48
						C1145.54,663.81,1152.28,662.38,1151.55,660.84z"/>
					<path class="st32" d="M1081.96,693.32l-2.1,31.53c0,0,8.11-6.58,23.11,0.01c1.38-5.81,4.77-14.91,5.81-20.83
						C1096.39,697.77,1081.96,693.32,1081.96,693.32z"/>
				</g>
				<path class="st30" d="M1069.62,672.9l2.79,18.63c0,0-10.2,22.18-16.29,20.25c-5.11-1.61-1.96-21.24-1.96-21.24
					s2.78-10.54,1.95-15.81C1055.28,669.46,1069.62,672.9,1069.62,672.9z"/>
				<path class="st33" d="M1056.11,674.73c-0.83-5.27,13.51-1.83,13.51-1.83l0.23,1.54c-0.42,1.03-0.93,1.92-1.56,2.6
					c-3.2,3.49-8.21,5.59-12.54,5.74C1056.19,679.94,1056.46,676.89,1056.11,674.73z"/>
				<g>
					<path class="st30" d="M1071.98,646.55c0.41-0.15,3.25,21.21-2.15,27.09c-5.4,5.88-15.92,7.8-19.69,3.17
						c-4.17-5.12-3.96-28.08,4.43-34.13C1062.96,636.64,1071.98,646.55,1071.98,646.55z"/>
					<path d="M1057.77,631.26c6.49,1.34,10.69,5.35,12.23,7.06c2.95,0.35,6.95,2,11.08,8.93c5.08,8.52,1.33,17.95-4.59,22.58
						c-5.92,4.63-5.85,10-5.85,10l-0.92-2.79c-0.69-2.1-0.97-4.32-0.74-6.51c0.14-1.32,0.42-2.74,0.96-3.92
						c1.42-3.09-3.06-5.15-4.31-7.72c-0.97-1.98-1.01-6.51-2.54-9.79l-1.82-2.5c0,0-4.2-3.31-8.31-2.37
						C1048.85,645.16,1049.44,629.54,1057.77,631.26z"/>
					<path class="st30" d="M1065.9,662.69c-0.04,2.61,1.13,4.74,2.62,4.77c1.49,0.03,2.73-2.07,2.77-4.67
						c0.04-2.61-1.13-4.74-2.62-4.77C1067.19,657.99,1065.95,660.08,1065.9,662.69z"/>
				</g>
				<path class="st8" d="M1050.4,669.51l7.05,1.46c0,0-0.72,2.64-3.83,2.09C1049.81,672.39,1050.4,669.51,1050.4,669.51z"/>
			</g>
			<g>
				<path d="M904.53,305.62L904.53,305.62c-0.03-0.01-0.06-0.02-0.08-0.03c-0.8-0.29-1.62-0.55-2.45-0.78
					c-0.28-0.08-0.56-0.17-0.85-0.24c-0.3-0.08-0.6-0.15-0.9-0.22c-0.31-0.07-0.61-0.15-0.92-0.21c-0.29-0.06-0.59-0.12-0.88-0.18
					c-0.33-0.06-0.66-0.12-0.99-0.18c-0.28-0.05-0.56-0.09-0.85-0.13c-0.36-0.05-0.72-0.1-1.08-0.14c-0.26-0.03-0.53-0.06-0.79-0.09
					c-0.41-0.04-0.83-0.07-1.25-0.09c-0.22-0.01-0.44-0.03-0.66-0.04c-0.64-0.03-1.28-0.05-1.93-0.05H593.75
					c-0.69,0-1.38,0.02-2.06,0.05c-1.37,0.07-2.71,0.21-4.04,0.41c-0.66,0.1-1.32,0.22-1.97,0.35
					c-16.95,3.47-30.01,17.65-31.79,35.16c-0.14,1.35-0.21,2.71-0.21,4.1v494.47v112.81c0,17.34,11.02,32.11,26.43,37.68l0,0
					c2.49,0.7,5.17,2.17,13.64,2.38h297.14c1.38,0,2.75-0.07,4.1-0.21c18.86-1.91,33.85-16.91,35.76-35.76
					c0.14-1.35,0.21-2.71,0.21-4.1V456.12V343.31C930.96,325.97,919.94,311.2,904.53,305.62z"/>
				<rect x="568.94" y="354.45" class="st32" width="338.43" height="578.19"/>
				<path class="st34" d="M786.68,336.28h-96.51c-1.31,0-2.36-1.06-2.36-2.36v-2.52c0-1.31,1.06-2.36,2.36-2.36h96.51
					c1.31,0,2.37,1.06,2.37,2.36v2.52C789.05,335.22,787.99,336.28,786.68,336.28z"/>
				<rect x="568.94" y="908.38" class="st35" width="338.43" height="24.26"/>
				<rect x="568.94" y="354.45" class="st35" width="338.43" height="30.68"/>
			</g>
			<path class="st32" d="M1136.47,568.68c-25.25,0.03-45.72,12.67-45.72,28.23c0,7.78,5.12,14.81,13.4,19.9l-10.24,22.95
				l21.56-17.86c6.29,2,13.44,3.13,21.01,3.12c25.25-0.03,45.72-12.67,45.72-28.22C1182.2,581.22,1161.72,568.64,1136.47,568.68z"/>
			<g>
				<path class="st30" d="M471.45,713.37c0,0,18.01-29.74,22.27-36.66c4.26-6.93,15.4-34.27,15.8-35.34
					c0.4-1.08-7.57-13.59-5.78-14.08c1.79-0.49,3.74,6.61,5.65,5.69c1.91-0.92,7.53-18.36,8.62-17.54
					c2.03,1.54-3.04,10.8-1.95,11.34c1.08,0.54,4.4-10.16,6.53-9.91c2.13,0.24-4.08,9.84-3.49,10.65c0.59,0.81,7.03-8.25,8.19-6.4
					c0.63,1-5.92,7.92-4.67,8.5c1.25,0.59,7.07-3.93,7.68-2.7c0.61,1.23-5.38,3.13-7.18,6.55c-1.8,3.42-4.85,4.97-6.14,11.24
					c-1.28,6.27-3.54,32.55-10.06,44.01c-6.52,11.45-19.94,33.05-19.94,33.05L471.45,713.37z"/>
				<path class="st30" d="M441.74,908.13c0.43-7.01,3.85-18.74,3.85-18.74l-12.15-80.99l31.27-11.55l9.01-0.08
					c0,0,4.7,18.81,3.05,43.45c-0.88,13.17-15.96,128.1-15.96,128.1l0,0c0.21,3.35,0.72,8.08,1.89,9.47
					c1.13,1.33,2.43,2.66,3.73,3.51c0.51,0.33,1.94,1.3,2.33,1.5c6,3.09,7.51,4.06,9.39,5.53c1.15,0.9,2.09,1.87,0.66,1.85
					l-26.11-0.45c0,0-1.15-0.5-2.16-2.5c-1.01-2,1.19-6.38,1.58-8.51c0.27-1.45,0.32-3.99,0.27-6.64
					C452.38,971.97,441.31,915.14,441.74,908.13z"/>
				<path d="M466.43,981.3c-6.91,1.89-12.01,0.6-14.86-0.62c-0.74,2.22-1.71,5.01-1.19,6.61c0.63,1.97,1.54,2.41,2.33,2.43
					c6.31,0.18,23.1,0.42,27.91,0.48c0.67,0.01,1.04-0.83,0.61-1.38C480.03,987.32,466.94,981.63,466.43,981.3z"/>
				<path d="M375.51,910.61c-3.34-1.34-10.4-2.21-10.67-1.54c-0.32,0.8-9.44,29.42-6.32,33.8c1.88,2.63,4.3-1.34,8.09-7.02
					C365.52,927.86,373.29,910.8,375.51,910.61z"/>
				<path class="st30" d="M468.54,785.02l-36.52-3.84l-0.07,4.11c-1.22,2.39-16.87,7.34-15.5,31.89c0.8,14.34,14.9,62.8,11.53,64.77
					c0,0-23.91,5.33-47.46,26.47c-2.5,1.23-4.26,2.02-4.68,2.15c-0.44,0.15-2.8-0.16-3.26-0.02c-7.14,7.79-7.08,17.31-5.98,25.31
					c2.97-4.65,6.6-11.2,7.75-11.68c0.83-0.35,5.09-2.25,9.75-4.21c13.59-5.12,56.36-19.7,63.97-24.17
					c3.55-2.08,15.42-74.11,16.29-78.35c0.51-2.49,1.71-11.73,3.42-17.56C469.19,795.07,469.45,789.97,468.54,785.02z"/>
				<path class="st35" d="M460.81,968.32l-8.9,1.2c-2.14-11.13-10.54-55.27-10.17-61.39c0.43-7.01,3.85-18.74,3.85-18.74
					l-12.15-80.99l31.27-11.55l9.01-0.08c0,0,4.7,18.81,3.05,43.45C475.88,853.39,460.81,968.32,460.81,968.32z"/>
				<path class="st32" d="M383.78,920.11l-2.57-12.29c23.33-20.63,46.78-25.86,46.78-25.86c3.37-1.97-10.73-50.43-11.53-64.77
					c-1.37-24.55,14.28-29.5,15.5-31.89l0.07-4.11l36.52,3.84c0.91,4.95,0.65,10.05-0.76,14.88c-1.71,5.83-2.9,15.06-3.42,17.56
					c-0.87,4.24-12.74,76.26-16.29,78.35c-7.6,4.47-50.38,19.04-63.97,24.17C384,920.01,383.89,920.06,383.78,920.11z"/>
				<path d="M387.14,647.62c2.94,7.83-1.71,13.67-4.94,21.38c-2.17,5.18,2.62,13.4,8.03,17.19c13.71,9.59,16.92,9.84,15.93,22.87
					c-2.39,31.38,34.83,18,40.81,17c5.99-1,10.5-0.73,13.36-2.72c8.62-6.01,16.71-24.07,15.19-39.29
					c-1.52-15.21-19.48-9.99-23.59-16.97c-4.11-6.98,8.31-15.68-2.27-27.35c-30.4-33.5-62.12-11.03-63.25,1.78
					C386.19,643.89,386.49,645.91,387.14,647.62z"/>
				<path class="st30" d="M424.11,721.98c0,0-36.45,0.91-44.45,1.56c-8,0.66-37.04-1.76-38.16-1.89c-1.13-0.13-8.56-12.73-9.8-11.37
					c-1.24,1.35,4.14,6.25,2.48,7.52c-1.66,1.27-19.52-1.57-19.28-0.25c0.44,2.47,10.86,2.16,10.85,3.35
					c-0.01,1.19-10.9-0.67-11.64,1.31c-0.74,1.98,10.48,0.81,10.93,1.69c0.45,0.88-10.4,2.5-9.29,4.34c0.6,1,9.62-1.67,9.57-0.31
					c-0.04,1.36-6.62,4.46-5.81,5.55c0.81,1.09,5.16-3.33,8.98-3.39c3.82-0.05,6.55-2.04,12.64-0.38
					c6.09,1.67,26.97,7.54,39.84,9.43c13.16,1.93,43.74,3.34,43.74,3.34L424.11,721.98z"/>
				<path class="st30" d="M481.74,762.78c1.83-19.38-2.43-23.15-2.7-25.14c1.82-6.24,8.45-15.5,9.84-18.12c0,0-9-10.2-15.67-10.11
					c0,0-7.1,8.97-12.37,11.71c-0.08-0.02-1.86,0.8-2.65,0.79c-5.09-0.04-22.87-0.58-26.18,0.42l-3.99,27.64
					c0.96,1.57,2.12,33.16,4.08,35.76c1.97,2.6,36.46,14.27,41.2,11.22C473.48,796.82,480.59,774.92,481.74,762.78z"/>
				<path class="st27" d="M441.26,722.97c-3.28-1.57-27.23-1.52-27.23-1.52s-3.17,18.71-0.49,22.68c0,0,17.24,6.4,16.64,8.14
					L441.26,722.97z"/>
				<path class="st27" d="M476.59,786.38c2.09-7.33,4.52-16.93,5.15-23.6c1.83-19.38-2.43-23.15-2.7-25.14
					c1.82-6.24,8.45-15.5,9.84-18.12c0,0-9-10.2-15.67-10.11c0,0-7.1,8.97-12.37,11.71c-0.08-0.02-1.86,0.8-2.65,0.79
					c-5.09-0.04-22.86-0.58-26.18,0.42l-3.99,27.64c0.66,1.08,1.41,16.32,2.45,26.6C435.98,779.15,451.45,785.25,476.59,786.38z"/>
				<path class="st30" d="M446.59,711.8c0,0,1.84,9.53,1.47,13.29c-0.37,3.76,1.41,15.87,9.36,15.91c7.96,0.04,1.51-15.4,0.76-19.09
					c-0.75-3.68-0.93-15.09-0.93-15.09L446.59,711.8z"/>
				<path class="st33" d="M457.42,712.55c-0.12-3.12-0.16-5.72-0.16-5.72l-10.67,4.97c0,0,0.38,1.95,0.76,4.43
					C452.01,717.17,455.4,715.44,457.42,712.55z"/>
				<path class="st30" d="M442.69,685.5c0,0-4.11,2.28-5.61,7.23c-1.5,4.94,0.21,17.7,10.83,20.78
					c10.62,3.08,15.22-7.02,13.03-14.92C458.75,690.68,453.99,680.68,442.69,685.5z"/>
				<path class="st30" d="M462.26,695.52c-0.21,2.12-1.38,3.74-2.61,3.62c-1.24-0.12-2.07-1.94-1.86-4.06
					c0.21-2.12,1.38-3.74,2.61-3.62C461.64,691.58,462.47,693.4,462.26,695.52z"/>
				<path d="M443.93,684.85c0,0-1.93,14.23-6.53,16.8c-4.6,2.57-2.68,8.88-2.68,8.88s-4.17-14.66-0.53-19.37
					C437.83,686.46,443.93,684.85,443.93,684.85z"/>
				<path class="st30" d="M440.13,703.69c1.25,1.85,1.24,4.04-0.01,4.88c-1.25,0.84-3.28,0.02-4.53-1.83
					c-1.25-1.85-1.24-4.04,0.01-4.88C436.86,701.02,438.88,701.84,440.13,703.69z"/>
				<path class="st8" d="M447.94,705.82l8.49-2.89c0,0,0.92,3.35-2.77,4.73C449.14,709.35,447.94,705.82,447.94,705.82z"/>
			</g>
			<path class="st36" d="M318.51,646.49l3.76-6.9l-3.54-7.01c-0.4-0.8,0.28-1.71,1.16-1.55l7.7,1.45l5.56-5.54
				c0.63-0.63,1.71-0.26,1.83,0.63l1,7.79l6.97,3.59c0.79,0.41,0.78,1.55-0.03,1.94l-7.08,3.37l-1.25,7.76
				c-0.14,0.88-1.23,1.22-1.85,0.57l-5.38-5.72l-7.75,1.2C318.74,648.21,318.08,647.28,318.51,646.49z"/>
			<path class="st37" d="M459.33,547.17l1.96-3.19l-1.58-0.64c-0.34-0.14-0.51-0.53-0.37-0.88l0,0c0.14-0.35,0.53-0.51,0.88-0.37
				l1.82,0.74l1.75-2.86l-1.68-0.68c-0.34-0.14-0.51-0.53-0.37-0.88l0,0c0.14-0.35,0.53-0.51,0.88-0.37l1.93,0.78l2.04-3.28
				c0.17-0.28,0.52-0.39,0.83-0.27l0.29,0.12c0.39,0.16,0.54,0.62,0.32,0.98l-1.9,3.09l2.79,1.13l2.04-3.28
				c0.17-0.28,0.52-0.39,0.83-0.27l0.32,0.13c0.39,0.16,0.54,0.62,0.32,0.98l-1.9,3.09l1.58,0.64c0.35,0.14,0.51,0.53,0.37,0.88l0,0
				c-0.14,0.34-0.53,0.51-0.88,0.37l-1.82-0.74l-1.73,2.87l1.68,0.68c0.34,0.14,0.51,0.53,0.37,0.88l0,0
				c-0.14,0.34-0.53,0.51-0.88,0.37l-1.93-0.78l-2.08,3.38c-0.17,0.28-0.52,0.39-0.83,0.27l-0.34-0.14
				c-0.39-0.16-0.54-0.62-0.32-0.98l1.96-3.19l-2.79-1.13l-2.08,3.38c-0.17,0.28-0.52,0.39-0.83,0.27l-0.34-0.14
				C459.27,547.99,459.12,547.52,459.33,547.17z M466.45,544.62l1.75-2.86l-2.79-1.13l-1.75,2.86L466.45,544.62z"/>
			<polygon class="st38" points="317.98,549.34 334.84,558.49 332.73,541.75 			"/>
			<path class="st39" d="M830.45,932.64c-1.77-30.53-3.04-59.79-3.04-82.92c0-0.77-5.09-52.17-5.09-52.17l-109.22,28.78l17.27,106.3
				H830.45z"/>
			<polygon class="st40" points="786.01,932.64 809.51,862.09 806.5,804.89 673.47,843.02 665.05,891.74 660.41,932.64 			"/>
			<path class="st41" d="M910.91,617.62l23.26,17.85c4.48-3.46,14.28-18,20.63-22.54l-21.25-23.18l0,0
				c-1.75-1.28-2.7-3.39-2.49-5.55c0.15-1.53,0.37-2.97,0.59-3.57c0.66-1.83,1.26-4.02,1.92-5.85c0.66-1.83-3.73-5.52-6.03-6.17
				c-2.3-0.66-3.07,8.18-4.07,10.81c-3.02,7.92-6.65,29.62-7.34,33.21L910.91,617.62z"/>
			<path class="st27" d="M936.69,633.2c-6.53-6.97-15.75-10.88-22.59-18.12l-103.24,71.08c0,0-79.81-94.38-123.15-60.94
				c18.97,31.94,41.83,62.55,53.6,77.12c26.51,32.82,66.98,48.48,74.88,44.85C825.09,743.12,934.37,636.01,936.69,633.2z"/>
			<path class="st30" d="M485.17,396.95c3.42,9.1,9.32,23.41,9.32,23.41c0.17,4.11,1.02,21.2,2.1,42.14l29.05-15.91
				c0,0-4.46-33.8-3.35-36.03c0.94-1.89,3.14,0.06,10.88-14.46c2.23-4.19,1.9-11.16,1.9-11.16s-0.47-8.57-2.48-9.13
				c-2-0.56-4.04,0.97-4.55,2.53c-0.51,1.55,0.08,4.95-0.43,6.5c-0.51,1.55-4.71,3.86-6.59,3.99c-1.87,0.13-2.81-25.17-2.81-25.17
				s0.18-7.23,0.42-9.62c0.21-2.04,1.31-8.07,1.31-8.07s1.1-8.69-1.6-9.01c-1.59-0.19-4.69,7.13-6.51,14.73
				c-1.96,8.18-2.6,16.68-3.44,16.67c-1.98-0.03-2.61-13.89-2.61-13.89s1.18-6.53,0.77-9.49c1.39-3.86,1.79-10.76-1.5-10.92
				c-0.61-0.03-3.83,9.06-3.83,9.06s-0.94,6.24-1.58,9.18c-1.12,5.18-0.43,13.07-0.9,16.65c-0.4,2.97-1.22,1.87-1.51,2.03
				c-0.23,0.12-0.29-3.9-0.48-9.43c-0.09-2.78-0.79-5.92-0.4-9.14c0.36-2.99,0.27-7.19,0.15-9.72c-0.34-7.17-4.72-5.9-5.48,0.78
				c-0.29,2.55-0.58,5.32-0.87,8.13c-1.11,10.94,0.2,21.19-0.94,21.42c-1.48,0.29-2.76-18.51-2.76-18.51s-3.54-10.06-4.65-0.19
				c-1.29,11.45,0.09,20.5,0.17,20.9C482.54,377.89,481.75,387.85,485.17,396.95z"/>
			<path class="st32" d="M738.53,632.92l-35.65-18.34c0,0-31.67,4.62-35.6,5.1c-3.93,0.48-11.33,148.03-11.95,203.3
				c-0.62,55.27,6.13,64.23,6.13,64.23s51.61,5.22,88.38-2.57c38.24-8.1,79.2-34.23,79.2-34.23s-45.69-100.54-56.19-132.39
				C762.35,686.17,738.53,632.92,738.53,632.92z"/>
			<path class="st27" d="M668.7,619.3l-117.09-93.6c0,0-26.68-98.68-28.17-102.34c-1.46-3.59-27.59-2.47-38.15-2.22
				c-3.39,0.08,14.7,106.76,21.86,124.14c8.47,20.54,98.97,107.81,98.97,107.81s20.47,50.73,21.72,89.6
				c2.08,64.57-2.51,154.28,0.55,156.71c18.23,8.62,83.39,1.9,86.7-5.23C751.68,815.5,668.7,619.3,668.7,619.3z"/>
			<path class="st30" d="M699.79,595.41l5.34,20.52c0,0,9.94,29.3,2.53,36.07c-7.4,6.78-38.91-32.54-38.91-32.54l-3.61-53.21
				L699.79,595.41z"/>
			<path class="st33" d="M666.31,583.5c8.88,17.22,26.17,26.38,38,29.31l-4.52-17.4l-34.65-29.15L666.31,583.5z"/>
			<path class="st27" d="M768.25,654.85c0,0,49.5,117,67.1,158.23c1.91,4.46,11.48,33.62,11.83,36.54
				c0.78,6.46-26.34,18.06-29.74,17.98c-3.04-0.07-42.88-123.63-66.04-183.65c-7.85-20.34-19.35-39.06-33.95-55.25l-11.25-9.28
				l-1.09-3.48C705.13,615.93,755.39,620.41,768.25,654.85z"/>
			<g>
				<path class="st28" d="M869.12,529.82c0,0-21.66,12.94-8.85,33.71c11.94,19.36,29.94,6.91,34.58,3.75
					C899.49,564.13,869.12,529.82,869.12,529.82z"/>
				<path class="st42" d="M894.85,567.29c2.16-1.47-3.27-9.69-9.69-18.06c-7.79,5.2-16.47,11-23.83,15.94
					C873.25,582.18,890.35,570.35,894.85,567.29z"/>
				<path class="st31" d="M900.89,564.56c0,0,17.85,22.66,25.26,41.48c6.91,17.55,10.6,20,16.31,18.33
					c5.71-1.67,18.32-8.22,15.56-14.44c-2.76-6.21-20.89-37.36-39.23-52.46C900.44,542.36,900.89,564.56,900.89,564.56z"/>
				<path class="st27" d="M905.68,552.81c-2.58,3.62-4.8,11.75-4.8,11.75s17.85,22.66,25.26,41.48c6.91,17.55,10.6,20,16.31,18.33
					c2.09-0.61,5.11-1.88,7.97-3.55C932.07,577.94,910.77,557.1,905.68,552.81z"/>
				<path class="st27" d="M934.64,420.48c0,0-35.67,65.14-48.13,84.28l-5.71,16.02l25.67,41.17l22.46-2.23l90.68-15.17l-5.96-8.74
					l-33.34-36.42l-28.26-45.51l-14.83-29.05L934.64,420.48z"/>
				<polygon class="st27" points="980.31,499.39 972.9,487.46 895.51,544.39 906.47,561.96 928.93,559.73 1019.61,544.55 
					1013.65,535.81 				"/>
				<path class="st40" d="M889.08,502.11c0,0,7.93,37.66,39.85,57.62c0,0,2.22,2.16,0.45,4.82l-13.36,10.06
					c0,0-5.91,5.35-15.91-2.17c-10-7.52-29.68-25.58-33.86-52.83c0,0-1.29-7.31,6.35-11.94l10.02-6.59
					C882.62,501.08,887.13,498.31,889.08,502.11z"/>
				<path d="M934.64,420.48c0,0,9.71-16.19,17.91-19.35c8.2-3.16,20.8,4.23,29.73,10.82c8.93,6.6,37.14,35.35,48.18,58.11
					c11.04,22.75,24.68,56.04,14.94,64.76c-9.74,8.71-25.78,9.73-25.78,9.73s-25.01-8.15-56.3-52.91
					C932.02,446.88,934.64,420.48,934.64,420.48z"/>
				<path class="st32" d="M1037.87,539.51c0,0,6-22.51-19.88-65.72c-40.75-68.04-71.83-67.93-71.83-67.93s-13.38,23.14,34.58,85.31
					C1020.26,542.4,1037.87,539.51,1037.87,539.51z"/>
				<path class="st28" d="M962.17,464.34c4.83,8,10.92,16.92,18.57,26.83c3.83,4.96,7.45,9.41,10.87,13.41
					c6.97-6.23,17.19-18.83,4.05-34.48C983.48,455.6,969.47,460.25,962.17,464.34z"/>
				<path class="st42" d="M980.74,491.18c3.83,4.96,7.45,9.41,10.87,13.41c6.87-6.15,16.91-18.49,4.58-33.84l-20.02,14.37
					C977.63,487.1,979.15,489.12,980.74,491.18z"/>
				<path class="st43" d="M928.93,559.73c-10-6.25-17.65-14.25-23.44-22.28l-24.41,16.08c6.67,8.8,14.05,15.16,19.03,18.9
					c10,7.52,15.91,2.17,15.91,2.17l13.36-10.06C931.15,561.88,928.93,559.73,928.93,559.73z"/>
			</g>
			<g>
				<path class="st30" d="M959.15,602.52c-0.32-1.76-0.89-3.57-1.61-5.36c-0.83-1.92-2.17-4.24-3.08-4.92
					c-0.58-0.43-1.01-1.83-1.56-3.25c-0.18-0.46-0.41-0.89-0.7-1.29c-0.01-0.01-0.01-0.02-0.02-0.03c-0.83-1.15-1.88-2.11-3.04-2.94
					c-1.1-0.78-2.06-1.81-3.28-3.56c-0.95-1.36-2.19-2.52-3.68-3.25c-1.47-0.72-2.59-0.74-3.12,0.17
					c-2.43,4.18-14.61,17.53-9.67,23.98c4.13,5.4,9.5,11.02,10.62,13.58c1.52,3.5,6.87,3.26,10.07,2.04
					C956.09,615.39,960.82,611.59,959.15,602.52z"/>
			</g>
			<g>
				<g>
					<path d="M689.03,463.66c0,0-21.46-15.97-33.39,8.1c0.09-0.19-8.03-0.76-9.16-0.5c-4.82,1.09-9.76,5.23-14.17,7.36
						c-15.69,7.59-24.13,24.08-26.39,39.66c-2.75,18.9,4.49,33.45,16.77,48.23c3.62,4.35,7.52,8.63,12.51,11.62
						c6.02,3.61,11.24,1.53,17.05,3.32c4.89,1.51,6.19,6.5,12.25,5.21c8.49-1.8,18.04-10.64,28.14-8.43
						c10.09,2.21,34.49-4.4,34.55-4.42c31.34-8.5,15.88-64.16,11.85-83.8C735.27,471.55,708.4,458.61,689.03,463.66z"/>
					<path class="st30" d="M675.05,491.25c19.02-8.75,42.02,0.84,47.79,19.38c2.51,8.06,5.2,18.25,7.05,29.52
						c4.46,27.12-7.01,55.44-20.42,57.08c-13.41,1.64-53.01-11.43-59.91-49.85C645.29,523.66,655.09,500.44,675.05,491.25z"/>
					<path class="st30" d="M659.88,549.23c0.86,6-2.75,11.39-8.08,12.04c-5.33,0.65-10.35-3.68-11.21-9.68
						c-0.87-6,2.75-11.39,8.08-12.04C653.99,538.9,659.01,543.23,659.88,549.23z"/>
					<path d="M701.09,556.99c0,0-17.94,5.12-20.02,12.27c-2.08,7.15-0.92,17.81,6.84,26.54c7.76,8.73,26.39,5.15,31.75,1.09
						c5.36-4.06,10.86-22.6,6.86-33.47C722.53,552.55,701.09,556.99,701.09,556.99z"/>
					<path class="st30" d="M687.87,569.41c0,0,0.18,13.53,3.21,15.36c2.94,1.77,6.72,3.36,10.3,3.96c5.8,0.97,11.29-0.91,14.75-4.82
						c0.34-0.39,0.66-0.79,0.93-1.21c2.78-4.18,3.11-16.62,3.11-16.62s-9.74-1.72-15.51-1.3
						C698.9,565.22,687.87,569.41,687.87,569.41z"/>
					<path class="st8" d="M692.98,570.37l23.26-3.4c0,0,0.75,9.06-9.44,10.85C694.38,580.01,692.98,570.37,692.98,570.37z"/>
				</g>
				<path d="M648.67,539.55c0,0,23.53-28.59,22.51-41.35c0,0,42.86,6.87,44.38-3.73c1.51-10.6-35.39-20.34-35.39-20.34
					s-29.94,16.88-31.5,19.91c-1.56,3.03-15.19,26.84-13.24,31.6c1.95,4.76,2.6,7.79,7.14,9.31
					C647.11,536.45,649.48,539.41,648.67,539.55z"/>
			</g>
			<g>
				<path class="st27" d="M424.95,509.24H274.9c-5.18,0-9.38,4.2-9.38,9.38v61.92c0,5.18,4.2,9.38,9.38,9.38h118.13
					c4.78,6.67,13.45,18.62,14.21,18.62c0.72,0-0.66-11.28-1.64-18.62h19.34c5.18,0,9.38-4.2,9.38-9.38v-61.92
					C434.34,513.44,430.13,509.24,424.95,509.24z"/>
				<path class="st8" d="M329.96,533.41h-44.49c-0.38,0-0.69-0.31-0.69-0.69v-2.7c0-0.38,0.31-0.69,0.69-0.69h44.49
					c0.38,0,0.69,0.31,0.69,0.69v2.7C330.65,533.1,330.34,533.41,329.96,533.41z"/>
				<path class="st8" d="M315.07,546.76h-29.6c-0.38,0-0.69-0.31-0.69-0.69v-2.7c0-0.38,0.31-0.69,0.69-0.69h29.6
					c0.38,0,0.69,0.31,0.69,0.69v2.7C315.76,546.45,315.45,546.76,315.07,546.76z"/>
				<path class="st8" d="M356.94,546.76H320.2c-0.38,0-0.69-0.31-0.69-0.69v-2.7c0-0.38,0.31-0.69,0.69-0.69h36.75
					c0.38,0,0.69,0.31,0.69,0.69v2.7C357.64,546.45,357.33,546.76,356.94,546.76z"/>
				<path class="st8" d="M415.07,546.76h-51.91c-0.38,0-0.69-0.31-0.69-0.69v-2.7c0-0.38,0.31-0.69,0.69-0.69h51.91
					c0.38,0,0.69,0.31,0.69,0.69v2.7C415.76,546.45,415.45,546.76,415.07,546.76z"/>
				<path class="st8" d="M415.29,533.41h-75.55c-0.38,0-0.69-0.31-0.69-0.69v-2.7c0-0.38,0.31-0.69,0.69-0.69h75.55
					c0.38,0,0.69,0.31,0.69,0.69v2.7C415.98,533.1,415.67,533.41,415.29,533.41z"/>
				<path class="st8" d="M415.29,572.91H285.47c-0.38,0-0.69-0.31-0.69-0.69v-2.7c0-0.38,0.31-0.69,0.69-0.69h129.82
					c0.38,0,0.69,0.31,0.69,0.69v2.7C415.98,572.6,415.67,572.91,415.29,572.91z"/>
				<path class="st8" d="M351.87,559.99h-66.4c-0.38,0-0.69-0.31-0.69-0.69v-2.7c0-0.38,0.31-0.69,0.69-0.69h66.4
					c0.38,0,0.69,0.31,0.69,0.69v2.7C352.56,559.68,352.25,559.99,351.87,559.99z"/>
				<path class="st8" d="M415.29,559.99h-58.68c-0.38,0-0.69-0.31-0.69-0.69v-2.7c0-0.38,0.31-0.69,0.69-0.69h58.68
					c0.38,0,0.69,0.31,0.69,0.69v2.7C415.98,559.68,415.67,559.99,415.29,559.99z"/>
			</g>
		</g>
	</g>
	<text transform="matrix(1 0 0 1 333.0005 1379.0293)" class="st44 st45 st46">Register Success</text>
</g>
</svg>
